<svg xmlns="http://www.w3.org/2000/svg" fill="none" viewBox="0 0 24 24">
  <path fill="#3AB15E" fill-rule="evenodd" d="M12 22.748c-5.937 0-10.75-4.813-10.75-10.75S6.063 1.248 12 1.248s10.75 4.813 10.75 10.75-4.813 10.75-10.75 10.75Zm4.48-13.372a1 1 0 0 0-.96-1.755c-1.828 1-3.34 2.93-4.357 4.487-.376.575-.697 1.12-.954 1.581a9.084 9.084 0 0 0-.689-.602 9.92 9.92 0 0 0-.71-.512l-.314-.195a1 1 0 0 0-.992 1.737l.21.131c.144.094.344.232.566.408.458.362.951.836 1.262 1.356a1 1 0 0 0 1.768-.098l.098-.205a24.631 24.631 0 0 1 1.43-2.507c.983-1.507 2.27-3.076 3.642-3.826Z" clip-rule="evenodd"/>
</svg>